<svg xmlns="http://www.w3.org/2000/svg" xmlns:xlink="http://www.w3.org/1999/xlink" width="60" zoomAndPan="magnify" viewBox="0 0 45 44.999999" height="60" preserveAspectRatio="xMidYMid meet" version="1.0"><defs><clipPath id="1dc4bd528e"><path d="M 0.789062 0.789062 L 44.289062 0.789062 L 44.289062 44.289062 L 0.789062 44.289062 Z M 0.789062 0.789062 " clip-rule="nonzero"/></clipPath><clipPath id="ceb30ea36a"><path d="M 8 9.828125 L 37.121094 9.828125 L 37.121094 35.328125 L 8 35.328125 Z M 8 9.828125 " clip-rule="nonzero"/></clipPath></defs><g clip-path="url(#1dc4bd528e)"><path fill="#000000" d="M 44.289062 22.539062 C 44.289062 23.25 44.253906 23.960938 44.183594 24.667969 C 44.113281 25.378906 44.007812 26.082031 43.871094 26.78125 C 43.730469 27.480469 43.558594 28.167969 43.351562 28.851562 C 43.144531 29.53125 42.90625 30.203125 42.632812 30.859375 C 42.359375 31.519531 42.054688 32.164062 41.71875 32.789062 C 41.382812 33.417969 41.019531 34.027344 40.621094 34.621094 C 40.226562 35.214844 39.800781 35.785156 39.351562 36.335938 C 38.898438 36.886719 38.421875 37.414062 37.917969 37.917969 C 37.414062 38.421875 36.886719 38.898438 36.335938 39.351562 C 35.785156 39.800781 35.214844 40.226562 34.621094 40.621094 C 34.027344 41.019531 33.417969 41.382812 32.789062 41.71875 C 32.164062 42.054688 31.519531 42.359375 30.859375 42.632812 C 30.203125 42.90625 29.53125 43.144531 28.851562 43.351562 C 28.167969 43.558594 27.480469 43.730469 26.78125 43.871094 C 26.082031 44.007812 25.378906 44.113281 24.667969 44.183594 C 23.960938 44.253906 23.25 44.289062 22.539062 44.289062 C 21.824219 44.289062 21.113281 44.253906 20.40625 44.183594 C 19.695312 44.113281 18.992188 44.007812 18.292969 43.871094 C 17.59375 43.730469 16.90625 43.558594 16.222656 43.351562 C 15.542969 43.144531 14.871094 42.90625 14.214844 42.632812 C 13.554688 42.359375 12.914062 42.054688 12.285156 41.71875 C 11.65625 41.382812 11.046875 41.019531 10.453125 40.621094 C 9.863281 40.226562 9.289062 39.800781 8.738281 39.351562 C 8.1875 38.898438 7.660156 38.421875 7.15625 37.917969 C 6.652344 37.414062 6.175781 36.886719 5.722656 36.335938 C 5.273438 35.785156 4.847656 35.214844 4.453125 34.621094 C 4.058594 34.027344 3.691406 33.417969 3.355469 32.789062 C 3.019531 32.164062 2.714844 31.519531 2.441406 30.859375 C 2.171875 30.203125 1.929688 29.53125 1.722656 28.851562 C 1.515625 28.167969 1.34375 27.480469 1.207031 26.78125 C 1.066406 26.082031 0.960938 25.378906 0.890625 24.667969 C 0.824219 23.960938 0.789062 23.25 0.789062 22.539062 C 0.789062 21.824219 0.824219 21.113281 0.890625 20.40625 C 0.960938 19.695312 1.066406 18.992188 1.207031 18.292969 C 1.34375 17.59375 1.515625 16.90625 1.722656 16.222656 C 1.929688 15.542969 2.171875 14.871094 2.441406 14.214844 C 2.714844 13.554688 3.019531 12.914062 3.355469 12.285156 C 3.691406 11.65625 4.058594 11.046875 4.453125 10.453125 C 4.847656 9.863281 5.273438 9.289062 5.722656 8.738281 C 6.175781 8.1875 6.652344 7.660156 7.15625 7.15625 C 7.660156 6.652344 8.1875 6.175781 8.738281 5.722656 C 9.289062 5.273438 9.863281 4.847656 10.453125 4.453125 C 11.046875 4.058594 11.65625 3.691406 12.285156 3.355469 C 12.914062 3.019531 13.554688 2.714844 14.214844 2.441406 C 14.871094 2.171875 15.542969 1.929688 16.222656 1.722656 C 16.90625 1.515625 17.59375 1.34375 18.292969 1.207031 C 18.992188 1.066406 19.695312 0.960938 20.40625 0.890625 C 21.113281 0.824219 21.824219 0.789062 22.539062 0.789062 C 23.25 0.789062 23.960938 0.824219 24.667969 0.890625 C 25.378906 0.960938 26.082031 1.066406 26.78125 1.207031 C 27.480469 1.34375 28.167969 1.515625 28.851562 1.722656 C 29.53125 1.929688 30.203125 2.171875 30.859375 2.441406 C 31.519531 2.714844 32.164062 3.019531 32.789062 3.355469 C 33.417969 3.691406 34.027344 4.058594 34.621094 4.453125 C 35.214844 4.847656 35.785156 5.273438 36.335938 5.722656 C 36.886719 6.175781 37.414062 6.652344 37.917969 7.15625 C 38.421875 7.660156 38.898438 8.1875 39.351562 8.738281 C 39.800781 9.289062 40.226562 9.863281 40.621094 10.453125 C 41.019531 11.046875 41.382812 11.65625 41.71875 12.285156 C 42.054688 12.914062 42.359375 13.554688 42.632812 14.214844 C 42.90625 14.871094 43.144531 15.542969 43.351562 16.222656 C 43.558594 16.90625 43.730469 17.59375 43.871094 18.292969 C 44.007812 18.992188 44.113281 19.695312 44.183594 20.40625 C 44.253906 21.113281 44.289062 21.824219 44.289062 22.539062 Z M 44.289062 22.539062 " fill-opacity="1" fill-rule="nonzero"/></g><path fill="#000000" d="M 14.300781 16.257812 L 14.300781 24.933594 C 24.164062 25.40625 27.101562 29.574219 27.101562 29.574219 L 27.101562 11.613281 C 27.101562 11.613281 24.164062 15.785156 14.300781 16.257812 Z M 14.300781 16.257812 " fill-opacity="1" fill-rule="nonzero"/><path fill="#000000" d="M 28.066406 10.574219 C 27.535156 10.574219 27.101562 11.003906 27.101562 11.539062 L 27.101562 29.730469 C 27.101562 30.265625 27.535156 30.695312 28.066406 30.695312 C 28.601562 30.695312 29.03125 30.265625 29.03125 29.730469 L 29.03125 11.539062 C 29.03125 11.003906 28.59375 10.574219 28.066406 10.574219 Z M 28.066406 10.574219 " fill-opacity="1" fill-rule="nonzero"/><path fill="#000000" d="M 7.53125 24.933594 L 14.300781 24.933594 L 14.300781 16.265625 L 7.53125 16.265625 C 7.324219 16.265625 7.152344 16.4375 7.152344 16.644531 L 7.152344 24.5625 C 7.152344 24.769531 7.324219 24.933594 7.53125 24.933594 Z M 7.53125 24.933594 " fill-opacity="1" fill-rule="nonzero"/><path fill="#000000" d="M 30.589844 27.957031 L 30.589844 26.59375 C 33.882812 26.59375 36.5625 23.914062 36.5625 20.625 C 36.5625 17.335938 33.882812 14.65625 30.589844 14.65625 L 30.589844 13.292969 C 34.632812 13.292969 37.914062 16.585938 37.914062 20.617188 C 37.921875 24.671875 34.632812 27.957031 30.589844 27.957031 Z M 30.589844 27.957031 " fill-opacity="1" fill-rule="nonzero"/><path fill="#000000" d="M 30.589844 24.664062 L 30.589844 23.304688 C 32.0625 23.304688 33.269531 22.105469 33.269531 20.625 C 33.269531 19.152344 32.074219 17.945312 30.589844 17.945312 L 30.589844 16.59375 C 32.8125 16.59375 34.632812 18.402344 34.632812 20.632812 C 34.632812 22.855469 32.824219 24.664062 30.589844 24.664062 Z M 30.589844 24.664062 " fill-opacity="1" fill-rule="nonzero"/><path fill="#000000" d="M 15.265625 33.769531 L 13.027344 24.933594 L 9.359375 24.933594 L 11.667969 34.054688 C 11.734375 34.3125 11.96875 34.492188 12.234375 34.492188 L 14.699219 34.492188 C 15.078125 34.503906 15.363281 34.140625 15.265625 33.769531 Z M 15.265625 33.769531 " fill-opacity="1" fill-rule="nonzero"/><g clip-path="url(#ceb30ea36a)"><path fill="#ffffff" d="M 37.121094 19.644531 C 37.121094 19.363281 37.074219 19.089844 36.980469 18.824219 C 36.886719 18.558594 36.75 18.316406 36.574219 18.097656 C 36.398438 17.878906 36.1875 17.699219 35.949219 17.550781 C 35.710938 17.40625 35.453125 17.304688 35.179688 17.25 L 35.179688 10.351562 C 35.179688 10.21875 35.132812 10.101562 35.035156 10.007812 C 34.941406 9.910156 34.828125 9.863281 34.691406 9.863281 L 33.527344 9.863281 C 33.273438 9.863281 33.019531 9.882812 32.769531 9.90625 C 32.761719 9.90625 32.757812 9.902344 32.75 9.902344 C 32.742188 9.902344 32.730469 9.910156 32.71875 9.910156 C 31.765625 10.003906 30.855469 10.253906 29.992188 10.664062 L 24.804688 13.136719 C 23.226562 13.886719 21.5625 14.261719 19.8125 14.265625 L 13.3125 14.265625 C 12.972656 14.265625 12.636719 14.300781 12.304688 14.367188 C 11.972656 14.433594 11.648438 14.53125 11.332031 14.660156 C 11.019531 14.789062 10.71875 14.945312 10.433594 15.128906 C 10.148438 15.316406 9.882812 15.527344 9.640625 15.765625 C 9.394531 16 9.175781 16.257812 8.976562 16.539062 C 8.78125 16.816406 8.613281 17.113281 8.472656 17.421875 C 8.332031 17.734375 8.222656 18.058594 8.144531 18.390625 C 8.066406 18.722656 8.019531 19.058594 8.003906 19.398438 C 7.988281 19.742188 8.003906 20.082031 8.050781 20.417969 C 8.101562 20.757812 8.179688 21.085938 8.292969 21.410156 C 8.40625 21.734375 8.546875 22.042969 8.714844 22.339844 C 8.886719 22.632812 9.082031 22.910156 9.304688 23.167969 C 9.527344 23.425781 9.769531 23.664062 10.039062 23.875 C 10.304688 24.085938 10.589844 24.269531 10.890625 24.425781 C 11.191406 24.582031 11.507812 24.707031 11.832031 24.804688 C 12.160156 24.902344 12.492188 24.964844 12.828125 25 L 12.828125 33.828125 C 12.828125 34.019531 12.863281 34.207031 12.9375 34.386719 C 13.011719 34.566406 13.117188 34.726562 13.253906 34.863281 C 13.390625 35 13.550781 35.105469 13.726562 35.183594 C 13.90625 35.257812 14.09375 35.292969 14.285156 35.292969 L 17.105469 35.292969 C 17.308594 35.292969 17.503906 35.25 17.695312 35.167969 C 17.882812 35.085938 18.042969 34.964844 18.183594 34.8125 C 18.320312 34.660156 18.421875 34.484375 18.488281 34.289062 C 18.550781 34.09375 18.574219 33.894531 18.554688 33.6875 L 18.105469 28.9375 L 19.144531 28.9375 C 19.277344 28.9375 19.394531 28.886719 19.488281 28.792969 C 19.582031 28.699219 19.628906 28.582031 19.628906 28.445312 L 19.628906 25.023438 L 19.921875 25.023438 C 21.597656 25.027344 23.191406 25.386719 24.707031 26.105469 L 29.988281 28.625 C 30.855469 29.035156 31.765625 29.285156 32.714844 29.378906 C 32.726562 29.378906 32.738281 29.386719 32.746094 29.386719 C 32.757812 29.386719 32.757812 29.382812 32.765625 29.382812 C 33.019531 29.40625 33.269531 29.425781 33.523438 29.425781 L 34.691406 29.425781 C 34.828125 29.425781 34.941406 29.378906 35.035156 29.28125 C 35.132812 29.1875 35.179688 29.070312 35.179688 28.9375 L 35.179688 22.039062 C 35.453125 21.984375 35.710938 21.882812 35.949219 21.738281 C 36.1875 21.589844 36.398438 21.410156 36.574219 21.191406 C 36.75 20.972656 36.886719 20.730469 36.980469 20.464844 C 37.074219 20.199219 37.121094 19.925781 37.121094 19.644531 Z M 8.941406 19.644531 C 8.941406 19.355469 8.96875 19.070312 9.027344 18.785156 C 9.082031 18.503906 9.164062 18.226562 9.273438 17.960938 C 9.386719 17.695312 9.519531 17.441406 9.679688 17.199219 C 9.839844 16.960938 10.019531 16.738281 10.222656 16.535156 C 10.425781 16.328125 10.648438 16.148438 10.886719 15.988281 C 11.125 15.824219 11.375 15.691406 11.640625 15.578125 C 11.90625 15.46875 12.179688 15.386719 12.460938 15.328125 C 12.742188 15.273438 13.027344 15.242188 13.3125 15.242188 L 18.660156 15.242188 L 18.660156 24.046875 L 13.3125 24.046875 C 13.027344 24.046875 12.742188 24.015625 12.460938 23.960938 C 12.179688 23.902344 11.90625 23.820312 11.640625 23.710938 C 11.375 23.597656 11.125 23.464844 10.886719 23.300781 C 10.648438 23.140625 10.425781 22.960938 10.222656 22.753906 C 10.019531 22.550781 9.839844 22.328125 9.679688 22.089844 C 9.519531 21.847656 9.386719 21.59375 9.273438 21.328125 C 9.164062 21.0625 9.082031 20.785156 9.027344 20.503906 C 8.96875 20.21875 8.941406 19.933594 8.941406 19.644531 Z M 17.460938 34.15625 C 17.367188 34.261719 17.246094 34.316406 17.105469 34.316406 L 14.285156 34.316406 C 14.152344 34.316406 14.039062 34.269531 13.941406 34.171875 C 13.847656 34.078125 13.800781 33.960938 13.800781 33.828125 L 13.800781 25.023438 L 16.757812 25.023438 L 16.765625 25.109375 L 17.085938 28.492188 L 17.085938 28.496094 L 17.585938 33.777344 C 17.601562 33.921875 17.558594 34.046875 17.460938 34.15625 Z M 18.660156 27.957031 L 18.011719 27.957031 L 17.734375 25.023438 L 18.660156 25.023438 Z M 25.125 25.222656 C 23.476562 24.441406 21.742188 24.046875 19.921875 24.046875 L 19.628906 24.046875 L 19.628906 15.242188 L 19.8125 15.242188 C 21.707031 15.242188 23.511719 14.832031 25.222656 14.019531 L 30.40625 11.550781 C 31 11.269531 31.617188 11.078125 32.261719 10.964844 L 32.261719 28.324219 C 31.617188 28.214844 31 28.019531 30.40625 27.742188 Z M 34.207031 28.445312 L 33.527344 28.445312 C 33.429688 28.445312 33.332031 28.433594 33.234375 28.429688 L 33.234375 10.859375 C 33.332031 10.855469 33.429688 10.84375 33.527344 10.84375 L 34.207031 10.84375 Z M 35.179688 21.027344 L 35.179688 18.261719 C 35.46875 18.363281 35.703125 18.542969 35.882812 18.796875 C 36.0625 19.050781 36.152344 19.332031 36.152344 19.644531 C 36.152344 19.957031 36.0625 20.238281 35.882812 20.492188 C 35.703125 20.746094 35.46875 20.925781 35.179688 21.027344 Z M 35.179688 21.027344 " fill-opacity="1" fill-rule="nonzero"/></g></svg>