<svg xmlns="http://www.w3.org/2000/svg" xmlns:xlink="http://www.w3.org/1999/xlink" width="60" zoomAndPan="magnify" viewBox="0 0 45 44.999999" height="60" preserveAspectRatio="xMidYMid meet" version="1.0"><defs><clipPath id="a0038154db"><path d="M 0.523438 0.523438 L 44.773438 0.523438 L 44.773438 44.773438 L 0.523438 44.773438 Z M 0.523438 0.523438 " clip-rule="nonzero"/></clipPath><clipPath id="893957fe82"><path d="M 0.523438 0.523438 L 44.773438 0.523438 L 44.773438 44.773438 L 0.523438 44.773438 Z M 0.523438 0.523438 " clip-rule="nonzero"/></clipPath><clipPath id="515a4778e7"><path d="M 6.582031 8.71875 L 38.667969 8.71875 L 38.667969 36.453125 L 6.582031 36.453125 Z M 6.582031 8.71875 " clip-rule="nonzero"/></clipPath></defs><g clip-path="url(#a0038154db)"><path fill="#324a5e" d="M 44.773438 22.648438 C 44.773438 23.375 44.738281 24.097656 44.667969 24.820312 C 44.597656 25.539062 44.492188 26.253906 44.351562 26.964844 C 44.207031 27.675781 44.03125 28.378906 43.824219 29.074219 C 43.613281 29.765625 43.367188 30.449219 43.089844 31.117188 C 42.8125 31.785156 42.503906 32.441406 42.164062 33.078125 C 41.820312 33.71875 41.449219 34.339844 41.046875 34.941406 C 40.644531 35.542969 40.210938 36.125 39.753906 36.6875 C 39.292969 37.246094 38.808594 37.78125 38.292969 38.292969 C 37.78125 38.808594 37.246094 39.292969 36.6875 39.753906 C 36.125 40.210938 35.542969 40.644531 34.941406 41.046875 C 34.339844 41.449219 33.71875 41.820312 33.078125 42.164062 C 32.441406 42.503906 31.785156 42.8125 31.117188 43.089844 C 30.449219 43.367188 29.765625 43.613281 29.074219 43.824219 C 28.378906 44.03125 27.675781 44.207031 26.964844 44.351562 C 26.253906 44.492188 25.539062 44.597656 24.820312 44.667969 C 24.097656 44.738281 23.375 44.773438 22.648438 44.773438 C 21.925781 44.773438 21.203125 44.738281 20.480469 44.667969 C 19.761719 44.597656 19.042969 44.492188 18.332031 44.351562 C 17.621094 44.207031 16.921875 44.03125 16.226562 43.824219 C 15.535156 43.613281 14.851562 43.367188 14.183594 43.089844 C 13.511719 42.8125 12.859375 42.503906 12.21875 42.164062 C 11.582031 41.820312 10.960938 41.449219 10.359375 41.046875 C 9.753906 40.644531 9.175781 40.210938 8.613281 39.753906 C 8.054688 39.292969 7.519531 38.808594 7.003906 38.292969 C 6.492188 37.78125 6.007812 37.246094 5.546875 36.6875 C 5.085938 36.125 4.65625 35.542969 4.253906 34.941406 C 3.851562 34.339844 3.480469 33.71875 3.136719 33.078125 C 2.796875 32.441406 2.488281 31.785156 2.210938 31.117188 C 1.933594 30.449219 1.6875 29.765625 1.476562 29.074219 C 1.265625 28.378906 1.089844 27.675781 0.949219 26.964844 C 0.808594 26.253906 0.703125 25.539062 0.632812 24.820312 C 0.558594 24.097656 0.523438 23.375 0.523438 22.648438 C 0.523438 21.925781 0.558594 21.203125 0.632812 20.480469 C 0.703125 19.761719 0.808594 19.042969 0.949219 18.332031 C 1.089844 17.621094 1.265625 16.921875 1.476562 16.226562 C 1.6875 15.535156 1.933594 14.851562 2.210938 14.183594 C 2.488281 13.511719 2.796875 12.859375 3.136719 12.21875 C 3.480469 11.582031 3.851562 10.960938 4.253906 10.359375 C 4.65625 9.753906 5.085938 9.175781 5.546875 8.613281 C 6.007812 8.054688 6.492188 7.519531 7.003906 7.003906 C 7.519531 6.492188 8.054688 6.007812 8.613281 5.546875 C 9.175781 5.085938 9.753906 4.65625 10.359375 4.253906 C 10.960938 3.851562 11.582031 3.480469 12.21875 3.136719 C 12.859375 2.796875 13.511719 2.488281 14.183594 2.210938 C 14.851562 1.933594 15.535156 1.6875 16.226562 1.476562 C 16.921875 1.265625 17.621094 1.089844 18.332031 0.949219 C 19.042969 0.808594 19.761719 0.703125 20.480469 0.632812 C 21.203125 0.558594 21.925781 0.523438 22.648438 0.523438 C 23.375 0.523438 24.097656 0.558594 24.820312 0.632812 C 25.539062 0.703125 26.253906 0.808594 26.964844 0.949219 C 27.675781 1.089844 28.378906 1.265625 29.074219 1.476562 C 29.765625 1.6875 30.449219 1.933594 31.117188 2.210938 C 31.785156 2.488281 32.441406 2.796875 33.078125 3.136719 C 33.71875 3.480469 34.339844 3.851562 34.941406 4.253906 C 35.542969 4.65625 36.125 5.085938 36.6875 5.546875 C 37.246094 6.007812 37.78125 6.492188 38.292969 7.003906 C 38.808594 7.519531 39.292969 8.054688 39.753906 8.613281 C 40.210938 9.175781 40.644531 9.753906 41.046875 10.359375 C 41.449219 10.960938 41.820312 11.582031 42.164062 12.21875 C 42.503906 12.859375 42.8125 13.511719 43.089844 14.183594 C 43.367188 14.851562 43.613281 15.535156 43.824219 16.226562 C 44.03125 16.921875 44.207031 17.621094 44.351562 18.332031 C 44.492188 19.042969 44.597656 19.761719 44.667969 20.480469 C 44.738281 21.203125 44.773438 21.925781 44.773438 22.648438 Z M 44.773438 22.648438 " fill-opacity="1" fill-rule="nonzero"/></g><path fill="#5ce1e6" d="M 14.273438 16.261719 L 14.273438 25.085938 C 24.304688 25.566406 27.292969 29.808594 27.292969 29.808594 L 27.292969 11.539062 C 27.292969 11.539062 24.304688 15.78125 14.273438 16.261719 Z M 14.273438 16.261719 " fill-opacity="1" fill-rule="nonzero"/><path fill="#5ce1e6" d="M 28.277344 10.480469 C 27.730469 10.480469 27.292969 10.917969 27.292969 11.460938 L 27.292969 29.964844 C 27.292969 30.511719 27.730469 30.949219 28.277344 30.949219 C 28.820312 30.949219 29.257812 30.511719 29.257812 29.964844 L 29.257812 11.460938 C 29.257812 10.917969 28.808594 10.480469 28.277344 10.480469 Z M 28.277344 10.480469 " fill-opacity="1" fill-rule="nonzero"/><path fill="#5ce1e6" d="M 7.386719 25.085938 L 14.273438 25.085938 L 14.273438 16.269531 L 7.386719 16.269531 C 7.175781 16.269531 7 16.445312 7 16.65625 L 7 24.710938 C 7 24.917969 7.175781 25.085938 7.386719 25.085938 Z M 7.386719 25.085938 " fill-opacity="1" fill-rule="nonzero"/><path fill="#5ce1e6" d="M 30.84375 28.160156 L 30.84375 26.777344 C 34.191406 26.777344 36.914062 24.050781 36.914062 20.703125 C 36.914062 17.359375 34.191406 14.632812 30.84375 14.632812 L 30.84375 13.246094 C 34.953125 13.246094 38.289062 16.59375 38.289062 20.695312 C 38.300781 24.824219 34.953125 28.160156 30.84375 28.160156 Z M 30.84375 28.160156 " fill-opacity="1" fill-rule="nonzero"/><path fill="#5ce1e6" d="M 30.84375 24.8125 L 30.84375 23.429688 C 32.339844 23.429688 33.566406 22.210938 33.566406 20.703125 C 33.566406 19.207031 32.351562 17.980469 30.84375 17.980469 L 30.84375 16.605469 C 33.101562 16.605469 34.953125 18.445312 34.953125 20.714844 C 34.953125 22.972656 33.113281 24.8125 30.84375 24.8125 Z M 30.84375 24.8125 " fill-opacity="1" fill-rule="nonzero"/><path fill="#5ce1e6" d="M 15.253906 34.074219 L 12.976562 25.085938 L 9.242188 25.085938 L 11.59375 34.367188 C 11.660156 34.628906 11.898438 34.8125 12.171875 34.8125 L 14.675781 34.8125 C 15.0625 34.820312 15.351562 34.453125 15.253906 34.074219 Z M 15.253906 34.074219 " fill-opacity="1" fill-rule="nonzero"/><g clip-path="url(#893957fe82)"><path fill="#000000" d="M 22.648438 0.523438 C 10.429688 0.523438 0.523438 10.429688 0.523438 22.648438 C 0.523438 34.871094 10.429688 44.773438 22.648438 44.773438 C 34.871094 44.773438 44.773438 34.871094 44.773438 22.648438 C 44.773438 10.429688 34.871094 0.523438 22.648438 0.523438 " fill-opacity="1" fill-rule="nonzero"/></g><path fill="#ffffff" d="M 21.25 18.871094 C 21.363281 18.871094 21.457031 18.964844 21.457031 19.078125 C 21.457031 19.1875 21.363281 19.28125 21.25 19.28125 C 20.925781 19.28125 20.664062 19.542969 20.664062 19.867188 C 20.664062 20.191406 20.925781 20.449219 21.25 20.449219 C 21.363281 20.449219 21.457031 20.542969 21.457031 20.65625 C 21.457031 20.765625 21.363281 20.859375 21.25 20.859375 C 20.925781 20.859375 20.664062 21.125 20.664062 21.445312 C 20.664062 21.765625 20.925781 22.027344 21.25 22.027344 C 21.363281 22.027344 21.457031 22.125 21.457031 22.234375 C 21.457031 22.347656 21.363281 22.441406 21.25 22.441406 L 16.257812 22.441406 C 15.964844 22.441406 15.671875 22.363281 15.417969 22.222656 L 14.75 21.851562 L 14.75 18.425781 L 16.574219 16.457031 C 16.855469 16.152344 17.011719 15.753906 17.011719 15.335938 L 17.011719 13.40625 C 17.011719 13.261719 17.042969 13.195312 17.058594 13.179688 C 17.074219 13.164062 17.121094 13.15625 17.164062 13.15625 C 17.371094 13.210938 17.433594 13.488281 17.449219 13.5625 L 17.449219 16.707031 C 17.449219 17.027344 17.710938 17.292969 18.035156 17.292969 L 21.25 17.292969 C 21.363281 17.292969 21.457031 17.386719 21.457031 17.496094 C 21.457031 17.605469 21.363281 17.699219 21.25 17.699219 C 20.925781 17.699219 20.664062 17.960938 20.664062 18.285156 C 20.664062 18.609375 20.925781 18.871094 21.25 18.871094 Z M 13.578125 22.578125 L 11.484375 22.578125 L 11.484375 17.847656 L 13.578125 17.847656 Z M 21.25 16.125 L 18.621094 16.125 L 18.621094 13.527344 C 18.621094 13.507812 18.617188 13.488281 18.617188 13.46875 C 18.570312 13 18.25 12.160156 17.316406 11.996094 C 17.214844 11.980469 16.703125 11.9375 16.28125 12.304688 C 16.082031 12.484375 15.839844 12.816406 15.839844 13.410156 L 15.839844 15.335938 C 15.839844 15.460938 15.792969 15.574219 15.710938 15.667969 L 14.496094 16.976562 C 14.324219 16.796875 14.082031 16.679688 13.816406 16.679688 L 11.246094 16.679688 C 10.730469 16.679688 10.3125 17.097656 10.3125 17.609375 L 10.3125 22.820312 C 10.3125 23.332031 10.730469 23.75 11.246094 23.75 L 13.816406 23.75 C 14.210938 23.75 14.546875 23.5 14.683594 23.15625 L 14.84375 23.242188 C 15.273438 23.484375 15.765625 23.609375 16.257812 23.609375 L 21.25 23.609375 C 22.011719 23.609375 22.628906 22.992188 22.628906 22.234375 C 22.628906 21.941406 22.539062 21.671875 22.378906 21.445312 C 22.539062 21.222656 22.628906 20.949219 22.628906 20.65625 C 22.628906 20.363281 22.539062 20.089844 22.378906 19.867188 C 22.539062 19.644531 22.628906 19.371094 22.628906 19.078125 C 22.628906 18.78125 22.539062 18.511719 22.378906 18.289062 C 22.539062 18.0625 22.628906 17.792969 22.628906 17.5 C 22.632812 16.738281 22.011719 16.125 21.25 16.125 " fill-opacity="1" fill-rule="nonzero"/><g clip-path="url(#515a4778e7)"><path fill="#ffffff" d="M 30.433594 33.15625 C 30.296875 32.988281 30.082031 32.917969 29.882812 32.953125 C 29.507812 33 29.125 33.027344 28.746094 33.027344 C 25.160156 33.027344 21.972656 30.863281 20.640625 27.59375 C 21.761719 27.078125 22.769531 26.363281 23.617188 25.492188 C 24.441406 27.003906 25.863281 28.167969 26.511719 28.644531 C 27.101562 29.078125 27.761719 29.484375 28.472656 29.851562 C 28.558594 29.898438 28.652344 29.917969 28.746094 29.917969 C 28.839844 29.917969 28.929688 29.898438 29.015625 29.851562 C 29.726562 29.484375 30.390625 29.078125 30.976562 28.644531 C 32.082031 27.832031 35.585938 24.929688 34.171875 21.753906 C 33.6875 20.667969 32.742188 20.03125 31.578125 20 C 30.527344 19.96875 29.460938 20.453125 28.746094 21.234375 C 28.125 20.550781 27.242188 20.105469 26.328125 20.019531 C 26.394531 19.558594 26.433594 19.085938 26.433594 18.605469 C 26.433594 17.707031 26.308594 16.839844 26.082031 16.007812 C 26.9375 15.738281 27.832031 15.59375 28.746094 15.59375 C 33.570312 15.59375 37.496094 19.503906 37.496094 24.308594 C 37.496094 27.617188 35.65625 30.59375 32.695312 32.089844 C 32.625 32.117188 32.558594 32.164062 32.503906 32.222656 C 32.367188 32.359375 32.3125 32.554688 32.351562 32.75 C 32.554688 33.734375 33.007812 34.507812 33.480469 35.085938 C 31.628906 34.554688 30.449219 33.171875 30.433594 33.15625 Z M 15.371094 27.253906 C 15.167969 27.210938 14.953125 27.289062 14.816406 27.449219 C 14.804688 27.472656 13.621094 28.855469 11.769531 29.378906 C 12.242188 28.804688 12.695312 28.03125 12.902344 27.046875 C 12.941406 26.855469 12.882812 26.65625 12.746094 26.515625 C 12.695312 26.464844 12.636719 26.425781 12.570312 26.394531 C 9.601562 24.898438 7.757812 21.917969 7.757812 18.605469 C 7.757812 13.800781 11.683594 9.890625 16.507812 9.890625 C 21.332031 9.890625 25.257812 13.800781 25.257812 18.605469 C 25.257812 23.414062 21.332031 27.324219 16.507812 27.324219 C 16.128906 27.324219 15.746094 27.300781 15.371094 27.253906 Z M 28.222656 22.515625 C 28.324219 22.710938 28.527344 22.835938 28.746094 22.835938 C 28.964844 22.835938 29.167969 22.710938 29.265625 22.515625 C 29.6875 21.695312 30.621094 21.148438 31.542969 21.164062 C 32.039062 21.179688 32.71875 21.375 33.09375 22.226562 C 34.183594 24.667969 30.941406 27.21875 30.28125 27.703125 C 29.8125 28.046875 29.300781 28.371094 28.746094 28.671875 C 28.191406 28.371094 27.675781 28.046875 27.207031 27.703125 C 26.570312 27.234375 25.078125 26.019531 24.449219 24.527344 C 25.199219 23.539062 25.757812 22.398438 26.09375 21.171875 C 26.949219 21.203125 27.824219 21.738281 28.222656 22.515625 Z M 35.515625 35.347656 C 35.503906 35.339844 34.132812 34.550781 33.609375 32.929688 C 36.742188 31.175781 38.667969 27.914062 38.667969 24.308594 C 38.667969 18.855469 34.21875 14.421875 28.746094 14.421875 C 27.707031 14.421875 26.683594 14.589844 25.707031 14.902344 C 24.234375 11.28125 20.667969 8.71875 16.507812 8.71875 C 11.035156 8.71875 6.582031 13.15625 6.582031 18.605469 C 6.582031 22.210938 8.507812 25.472656 11.640625 27.222656 C 11.117188 28.835938 9.746094 29.640625 9.738281 29.648438 C 9.507812 29.773438 9.394531 30.035156 9.453125 30.289062 C 9.511719 30.539062 9.726562 30.722656 9.988281 30.738281 C 10.117188 30.75 10.242188 30.75 10.367188 30.75 C 13.003906 30.75 14.878906 29.082031 15.5 28.441406 C 15.832031 28.476562 16.171875 28.492188 16.507812 28.492188 C 17.566406 28.492188 18.589844 28.324219 19.546875 28.015625 C 21.058594 31.734375 24.675781 34.195312 28.746094 34.195312 C 29.082031 34.195312 29.421875 34.179688 29.753906 34.144531 C 30.375 34.785156 32.246094 36.453125 34.882812 36.453125 C 35.007812 36.453125 35.132812 36.449219 35.261719 36.441406 C 35.523438 36.425781 35.738281 36.242188 35.796875 35.988281 C 35.859375 35.738281 35.742188 35.476562 35.515625 35.347656 " fill-opacity="1" fill-rule="nonzero"/></g></svg>