<svg xmlns="http://www.w3.org/2000/svg" xmlns:xlink="http://www.w3.org/1999/xlink" width="60" zoomAndPan="magnify" viewBox="0 0 45 44.999999" height="60" preserveAspectRatio="xMidYMid meet" version="1.0"><defs><clipPath id="86f282eb5e"><path d="M 0.382812 0.382812 L 44.632812 0.382812 L 44.632812 44.632812 L 0.382812 44.632812 Z M 0.382812 0.382812 " clip-rule="nonzero"/></clipPath><clipPath id="55178b7203"><path d="M 5.386719 16.21875 L 39.886719 16.21875 L 39.886719 36.46875 L 5.386719 36.46875 Z M 5.386719 16.21875 " clip-rule="nonzero"/></clipPath></defs><g clip-path="url(#86f282eb5e)"><path fill="#000000" d="M 22.507812 0.382812 C 10.289062 0.382812 0.382812 10.289062 0.382812 22.507812 C 0.382812 34.730469 10.289062 44.632812 22.507812 44.632812 C 34.730469 44.632812 44.632812 34.730469 44.632812 22.507812 C 44.632812 10.289062 34.730469 0.382812 22.507812 0.382812 " fill-opacity="1" fill-rule="nonzero"/></g><g clip-path="url(#55178b7203)"><path fill="#ffffff" d="M 8.863281 16.21875 C 7.023438 16.21875 5.527344 17.726562 5.527344 19.582031 L 5.527344 25.585938 C 5.527344 27.441406 7.023438 28.949219 8.863281 28.949219 L 22.242188 28.949219 C 22.464844 28.949219 22.648438 28.765625 22.648438 28.539062 C 22.648438 28.3125 22.464844 28.128906 22.242188 28.128906 L 8.863281 28.128906 C 7.472656 28.128906 6.34375 26.988281 6.34375 25.585938 L 6.34375 19.582031 C 6.34375 18.179688 7.472656 17.039062 8.863281 17.039062 L 34.0625 17.039062 C 34.289062 17.039062 34.46875 16.855469 34.46875 16.628906 C 34.46875 16.402344 34.289062 16.21875 34.0625 16.21875 Z M 29.9375 19.917969 C 29.898438 19.921875 29.859375 19.933594 29.824219 19.949219 C 29.675781 20.015625 29.578125 20.164062 29.578125 20.328125 L 29.578125 33.285156 C 29.578125 33.449219 29.675781 33.597656 29.824219 33.664062 C 29.972656 33.730469 30.148438 33.695312 30.265625 33.585938 L 33.039062 30.925781 L 35.300781 36.199219 C 35.34375 36.300781 35.425781 36.378906 35.53125 36.417969 C 35.578125 36.4375 35.625 36.449219 35.675781 36.449219 C 35.734375 36.449219 35.792969 36.433594 35.84375 36.410156 L 37.558594 35.625 C 37.765625 35.53125 37.855469 35.289062 37.761719 35.082031 L 35.425781 29.875 L 39.375 29.535156 C 39.535156 29.519531 39.671875 29.410156 39.726562 29.257812 C 39.777344 29.105469 39.738281 28.933594 39.621094 28.824219 L 30.265625 20.027344 C 30.175781 19.941406 30.054688 19.90625 29.9375 19.917969 Z M 23.496094 19.964844 L 21.714844 24.535156 L 22.394531 24.535156 L 24.183594 19.964844 Z M 25.929688 19.964844 L 24.148438 24.535156 L 24.828125 24.535156 L 26.613281 19.964844 Z M 10.011719 20.320312 L 10.011719 24.09375 L 10.664062 24.09375 L 10.664062 22.734375 C 10.664062 22.335938 10.929688 22.007812 11.316406 22.007812 C 11.664062 22.007812 11.914062 22.210938 11.914062 22.695312 L 11.914062 24.09375 L 12.566406 24.09375 L 12.566406 22.691406 C 12.566406 21.910156 12.238281 21.398438 11.488281 21.398438 C 11.1875 21.398438 10.898438 21.488281 10.664062 21.796875 L 10.664062 20.320312 Z M 14.039062 20.6875 L 13.386719 20.757812 L 13.386719 21.441406 L 12.894531 21.441406 L 12.894531 22.007812 L 13.386719 22.007812 L 13.386719 23.15625 C 13.386719 23.816406 13.757812 24.148438 14.332031 24.125 C 14.53125 24.121094 14.683594 24.085938 14.871094 24.011719 L 14.691406 23.453125 C 14.59375 23.5 14.476562 23.53125 14.375 23.53125 C 14.171875 23.53125 14.03125 23.410156 14.03125 23.15625 L 14.03125 22.007812 L 14.765625 22.007812 L 14.765625 21.441406 L 14.039062 21.441406 Z M 16.171875 20.6875 L 15.519531 20.757812 L 15.519531 21.441406 L 15.027344 21.441406 L 15.027344 22.007812 L 15.519531 22.007812 L 15.519531 23.15625 C 15.519531 23.816406 15.894531 24.148438 16.464844 24.125 C 16.664062 24.121094 16.820312 24.085938 17.007812 24.011719 L 16.824219 23.453125 C 16.726562 23.5 16.609375 23.53125 16.507812 23.53125 C 16.304688 23.53125 16.167969 23.410156 16.167969 23.15625 L 16.167969 22.007812 L 16.898438 22.007812 L 16.898438 21.441406 L 16.171875 21.441406 Z M 18.894531 21.375 C 18.59375 21.375 18.242188 21.503906 18.039062 21.800781 L 17.996094 21.4375 L 17.386719 21.4375 L 17.386719 25.203125 L 18.039062 25.203125 L 18.039062 23.78125 C 18.226562 24.070312 18.636719 24.15625 18.914062 24.15625 C 19.761719 24.15625 20.246094 23.542969 20.246094 22.765625 C 20.246094 21.984375 19.707031 21.375 18.894531 21.375 Z M 30.535156 21.402344 L 38.390625 28.792969 L 34.785156 29.109375 C 34.652344 29.117188 34.535156 29.191406 34.46875 29.308594 C 34.402344 29.421875 34.394531 29.5625 34.449219 29.683594 L 36.851562 35.046875 L 35.886719 35.488281 L 33.554688 30.058594 C 33.503906 29.9375 33.394531 29.847656 33.265625 29.820312 C 33.238281 29.816406 33.207031 29.8125 33.183594 29.8125 C 33.078125 29.8125 32.976562 29.851562 32.902344 29.925781 L 30.394531 32.328125 L 30.394531 22.097656 L 31.371094 24.308594 C 31.40625 24.386719 31.480469 24.429688 31.558594 24.429688 C 31.585938 24.429688 31.613281 24.425781 31.640625 24.414062 C 31.746094 24.367188 31.789062 24.246094 31.746094 24.140625 Z M 21.132812 21.808594 C 20.945312 21.808594 20.753906 21.9375 20.753906 22.191406 C 20.753906 22.691406 21.511719 22.691406 21.511719 22.191406 C 21.511719 21.9375 21.324219 21.808594 21.132812 21.808594 Z M 18.84375 22.011719 C 19.316406 22.011719 19.59375 22.351562 19.59375 22.765625 C 19.59375 23.179688 19.289062 23.523438 18.84375 23.523438 C 18.402344 23.523438 18.097656 23.179688 18.097656 22.765625 C 18.097656 22.351562 18.375 22.011719 18.84375 22.011719 Z M 21.132812 23.375 C 20.945312 23.375 20.753906 23.5 20.753906 23.753906 C 20.753906 24.253906 21.511719 24.253906 21.511719 23.753906 C 21.511719 23.5 21.324219 23.375 21.132812 23.375 Z M 31.789062 24.722656 C 31.765625 24.722656 31.738281 24.726562 31.710938 24.738281 C 31.609375 24.78125 31.558594 24.902344 31.605469 25.007812 L 31.683594 25.195312 C 31.71875 25.273438 31.792969 25.320312 31.871094 25.320312 C 31.898438 25.320312 31.925781 25.3125 31.953125 25.300781 C 32.054688 25.257812 32.101562 25.136719 32.058594 25.03125 L 31.980469 24.84375 C 31.945312 24.765625 31.871094 24.71875 31.789062 24.722656 Z M 31.789062 24.722656 " fill-opacity="1" fill-rule="nonzero"/></g></svg>