<svg xmlns="http://www.w3.org/2000/svg" xmlns:xlink="http://www.w3.org/1999/xlink" width="60" zoomAndPan="magnify" viewBox="0 0 45 44.999999" height="60" preserveAspectRatio="xMidYMid meet" version="1.0"><defs><clipPath id="1b30053e40"><path d="M 0.449219 0.449219 L 44.699219 0.449219 L 44.699219 44.699219 L 0.449219 44.699219 Z M 0.449219 0.449219 " clip-rule="nonzero"/></clipPath><clipPath id="01cee97342"><path d="M 7.476562 13 L 37 13 L 37 35.734375 L 7.476562 35.734375 Z M 7.476562 13 " clip-rule="nonzero"/></clipPath><clipPath id="76a9dd634b"><path d="M 21 9.484375 L 37.476562 9.484375 L 37.476562 22 L 21 22 Z M 21 9.484375 " clip-rule="nonzero"/></clipPath></defs><g clip-path="url(#1b30053e40)"><path fill="#000000" d="M 22.574219 0.449219 C 10.355469 0.449219 0.449219 10.355469 0.449219 22.574219 C 0.449219 34.792969 10.355469 44.699219 22.574219 44.699219 C 34.792969 44.699219 44.699219 34.792969 44.699219 22.574219 C 44.699219 10.355469 34.792969 0.449219 22.574219 0.449219 " fill-opacity="1" fill-rule="nonzero"/></g><g clip-path="url(#01cee97342)"><path fill="#ffffff" d="M 33.75 29.148438 L 33.75 23.414062 C 33.746094 23.269531 33.691406 23.148438 33.589844 23.046875 C 33.484375 22.945312 33.363281 22.894531 33.21875 22.894531 C 33.078125 22.894531 32.953125 22.945312 32.851562 23.046875 C 32.75 23.148438 32.695312 23.269531 32.691406 23.414062 L 32.691406 28.769531 L 30.566406 28.769531 C 30.421875 28.769531 30.296875 28.824219 30.195312 28.929688 C 30.089844 29.03125 30.039062 29.160156 30.039062 29.304688 C 30.039062 29.453125 30.089844 29.582031 30.195312 29.683594 C 30.296875 29.789062 30.421875 29.839844 30.566406 29.84375 L 32.929688 29.84375 L 35.449219 33.839844 C 35.558594 34.019531 35.566406 34.199219 35.464844 34.386719 C 35.363281 34.570312 35.210938 34.664062 35 34.664062 L 9.164062 34.664062 C 8.957031 34.664062 8.800781 34.570312 8.699219 34.386719 C 8.601562 34.199219 8.605469 34.019531 8.71875 33.839844 L 11.238281 29.84375 L 25.265625 29.84375 C 25.410156 29.839844 25.535156 29.789062 25.640625 29.683594 C 25.742188 29.582031 25.792969 29.453125 25.792969 29.304688 C 25.792969 29.160156 25.742188 29.03125 25.640625 28.929688 C 25.535156 28.824219 25.410156 28.769531 25.265625 28.769531 L 11.476562 28.769531 L 11.476562 15.914062 C 11.476562 15.699219 11.515625 15.496094 11.597656 15.296875 C 11.679688 15.101562 11.792969 14.925781 11.941406 14.777344 C 12.09375 14.625 12.265625 14.507812 12.460938 14.429688 C 12.65625 14.347656 12.859375 14.304688 13.070312 14.304688 L 19.960938 14.304688 C 20.109375 14.304688 20.230469 14.253906 20.335938 14.148438 C 20.441406 14.042969 20.492188 13.917969 20.492188 13.769531 C 20.492188 13.621094 20.441406 13.496094 20.335938 13.390625 C 20.230469 13.285156 20.109375 13.234375 19.960938 13.234375 L 13.070312 13.234375 C 12.71875 13.234375 12.378906 13.300781 12.054688 13.4375 C 11.730469 13.574219 11.441406 13.769531 11.191406 14.019531 C 10.945312 14.269531 10.753906 14.558594 10.617188 14.886719 C 10.484375 15.214844 10.414062 15.558594 10.414062 15.914062 L 10.414062 29.148438 L 7.824219 33.261719 C 7.667969 33.511719 7.585938 33.78125 7.574219 34.074219 C 7.566406 34.367188 7.632812 34.640625 7.769531 34.898438 C 7.910156 35.15625 8.105469 35.359375 8.355469 35.507812 C 8.605469 35.65625 8.875 35.730469 9.164062 35.730469 L 35 35.730469 C 35.289062 35.730469 35.5625 35.65625 35.808594 35.507812 C 36.058594 35.359375 36.253906 35.15625 36.394531 34.898438 C 36.535156 34.640625 36.597656 34.367188 36.589844 34.074219 C 36.582031 33.78125 36.5 33.507812 36.34375 33.261719 Z M 33.75 29.148438 " fill-opacity="1" fill-rule="nonzero"/></g><path fill="#ffffff" d="M 26.855469 29.304688 C 26.855469 29.453125 26.90625 29.582031 27.011719 29.683594 C 27.113281 29.789062 27.238281 29.84375 27.386719 29.84375 L 28.445312 29.84375 C 28.59375 29.84375 28.71875 29.789062 28.824219 29.683594 C 28.925781 29.582031 28.976562 29.453125 28.976562 29.304688 C 28.976562 29.160156 28.925781 29.03125 28.824219 28.925781 C 28.71875 28.824219 28.59375 28.769531 28.445312 28.769531 L 27.386719 28.769531 C 27.238281 28.769531 27.113281 28.824219 27.011719 28.925781 C 26.90625 29.03125 26.855469 29.160156 26.855469 29.304688 Z M 26.855469 29.304688 " fill-opacity="1" fill-rule="nonzero"/><path fill="#ffffff" d="M 16.777344 22.34375 C 17.167969 22.34375 17.539062 22.265625 17.894531 22.117188 C 18.253906 21.96875 18.570312 21.753906 18.84375 21.476562 C 19.117188 21.203125 19.328125 20.882812 19.476562 20.523438 C 19.625 20.160156 19.699219 19.785156 19.699219 19.394531 C 19.699219 19.003906 19.625 18.625 19.476562 18.265625 C 19.328125 17.902344 19.117188 17.585938 18.84375 17.308594 C 18.570312 17.03125 18.253906 16.820312 17.894531 16.667969 C 17.539062 16.519531 17.167969 16.445312 16.777344 16.445312 C 16.390625 16.445312 16.019531 16.519531 15.664062 16.667969 C 15.304688 16.820312 14.988281 17.03125 14.714844 17.308594 C 14.441406 17.585938 14.230469 17.902344 14.082031 18.265625 C 13.933594 18.625 13.859375 19.003906 13.859375 19.394531 C 13.859375 19.785156 13.933594 20.160156 14.082031 20.523438 C 14.230469 20.882812 14.441406 21.203125 14.714844 21.476562 C 14.988281 21.753906 15.304688 21.96875 15.664062 22.117188 C 16.019531 22.265625 16.390625 22.34375 16.777344 22.34375 Z M 16.777344 17.519531 C 17.023438 17.519531 17.261719 17.566406 17.488281 17.664062 C 17.714844 17.757812 17.917969 17.894531 18.089844 18.070312 C 18.265625 18.246094 18.398438 18.449219 18.492188 18.679688 C 18.585938 18.90625 18.632812 19.148438 18.632812 19.394531 C 18.632812 19.644531 18.585938 19.882812 18.492188 20.113281 C 18.398438 20.34375 18.265625 20.546875 18.089844 20.722656 C 17.917969 20.898438 17.714844 21.03125 17.488281 21.128906 C 17.261719 21.222656 17.023438 21.269531 16.777344 21.269531 C 16.53125 21.269531 16.296875 21.222656 16.066406 21.128906 C 15.839844 21.03125 15.640625 20.898438 15.464844 20.722656 C 15.292969 20.546875 15.15625 20.34375 15.0625 20.113281 C 14.96875 19.882812 14.921875 19.644531 14.921875 19.394531 C 14.921875 19.148438 14.96875 18.90625 15.066406 18.679688 C 15.160156 18.449219 15.292969 18.246094 15.46875 18.070312 C 15.640625 17.894531 15.84375 17.757812 16.070312 17.664062 C 16.296875 17.570312 16.53125 17.519531 16.777344 17.519531 Z M 16.777344 17.519531 " fill-opacity="1" fill-rule="nonzero"/><path fill="#ffffff" d="M 19.960938 26.628906 C 20.109375 26.628906 20.234375 26.574219 20.335938 26.472656 C 20.441406 26.367188 20.492188 26.242188 20.492188 26.09375 L 20.492188 25.019531 C 20.492188 24.808594 20.449219 24.601562 20.371094 24.40625 C 20.289062 24.207031 20.175781 24.035156 20.023438 23.882812 C 19.875 23.734375 19.703125 23.617188 19.507812 23.535156 C 19.316406 23.453125 19.113281 23.414062 18.902344 23.414062 L 14.65625 23.414062 C 14.445312 23.414062 14.246094 23.453125 14.050781 23.535156 C 13.855469 23.617188 13.683594 23.734375 13.535156 23.886719 C 13.386719 24.035156 13.269531 24.210938 13.191406 24.40625 C 13.109375 24.601562 13.070312 24.808594 13.070312 25.019531 L 13.070312 26.09375 C 13.074219 26.238281 13.128906 26.359375 13.230469 26.460938 C 13.335938 26.558594 13.457031 26.609375 13.601562 26.609375 C 13.742188 26.609375 13.867188 26.558594 13.96875 26.460938 C 14.070312 26.359375 14.125 26.238281 14.128906 26.09375 L 14.128906 25.019531 C 14.128906 24.871094 14.183594 24.746094 14.285156 24.640625 C 14.390625 24.539062 14.515625 24.484375 14.660156 24.484375 L 18.902344 24.484375 C 19.050781 24.484375 19.175781 24.539062 19.277344 24.640625 C 19.382812 24.746094 19.433594 24.871094 19.433594 25.019531 L 19.433594 26.09375 C 19.433594 26.238281 19.484375 26.367188 19.589844 26.46875 C 19.691406 26.574219 19.816406 26.628906 19.960938 26.628906 Z M 19.960938 26.628906 " fill-opacity="1" fill-rule="nonzero"/><path fill="#ffffff" d="M 30.039062 15.914062 C 30.320312 15.914062 30.59375 15.859375 30.851562 15.75 C 31.113281 15.640625 31.339844 15.484375 31.539062 15.285156 C 31.738281 15.082031 31.890625 14.851562 32 14.589844 C 32.105469 14.324219 32.160156 14.050781 32.160156 13.769531 C 32.160156 13.484375 32.105469 13.210938 31.996094 12.949219 C 31.890625 12.6875 31.734375 12.453125 31.539062 12.253906 C 31.339844 12.054688 31.109375 11.898438 30.847656 11.789062 C 30.589844 11.679688 30.320312 11.628906 30.039062 11.628906 C 29.757812 11.628906 29.484375 11.683594 29.226562 11.789062 C 28.964844 11.898438 28.738281 12.054688 28.539062 12.253906 C 28.339844 12.457031 28.1875 12.6875 28.078125 12.949219 C 27.96875 13.214844 27.917969 13.484375 27.917969 13.769531 C 27.917969 14.054688 27.972656 14.328125 28.078125 14.589844 C 28.1875 14.851562 28.339844 15.085938 28.539062 15.285156 C 28.738281 15.488281 28.96875 15.640625 29.226562 15.75 C 29.488281 15.859375 29.757812 15.914062 30.039062 15.914062 Z M 30.039062 12.699219 C 30.179688 12.699219 30.316406 12.726562 30.445312 12.78125 C 30.578125 12.835938 30.691406 12.914062 30.789062 13.011719 C 30.890625 13.113281 30.964844 13.230469 31.019531 13.363281 C 31.074219 13.492188 31.101562 13.628906 31.101562 13.773438 C 31.097656 13.914062 31.074219 14.050781 31.019531 14.179688 C 30.964844 14.3125 30.886719 14.429688 30.789062 14.527344 C 30.6875 14.628906 30.574219 14.707031 30.445312 14.761719 C 30.3125 14.816406 30.179688 14.84375 30.039062 14.84375 C 29.898438 14.84375 29.761719 14.816406 29.632812 14.761719 C 29.503906 14.707031 29.386719 14.628906 29.289062 14.527344 C 29.1875 14.425781 29.113281 14.3125 29.058594 14.179688 C 29.003906 14.050781 28.976562 13.914062 28.976562 13.769531 C 28.976562 13.628906 29.003906 13.492188 29.058594 13.359375 C 29.113281 13.230469 29.191406 13.113281 29.289062 13.011719 C 29.390625 12.910156 29.503906 12.835938 29.632812 12.78125 C 29.765625 12.726562 29.898438 12.699219 30.039062 12.699219 Z M 30.039062 12.699219 " fill-opacity="1" fill-rule="nonzero"/><path fill="#ffffff" d="M 26.855469 18.589844 L 26.855469 19.128906 C 26.855469 19.277344 26.90625 19.402344 27.011719 19.507812 C 27.113281 19.613281 27.238281 19.664062 27.386719 19.664062 C 27.53125 19.664062 27.65625 19.613281 27.761719 19.507812 C 27.867188 19.402344 27.917969 19.277344 27.917969 19.128906 L 27.917969 18.589844 C 27.917969 18.445312 27.96875 18.316406 28.074219 18.214844 C 28.175781 18.109375 28.300781 18.054688 28.445312 18.054688 L 31.628906 18.054688 C 31.777344 18.054688 31.902344 18.109375 32.003906 18.214844 C 32.109375 18.316406 32.160156 18.445312 32.160156 18.589844 L 32.160156 19.128906 C 32.152344 19.277344 32.203125 19.410156 32.308594 19.519531 C 32.414062 19.628906 32.539062 19.683594 32.691406 19.683594 C 32.839844 19.683594 32.96875 19.628906 33.070312 19.519531 C 33.175781 19.410156 33.226562 19.277344 33.21875 19.128906 L 33.21875 18.589844 C 33.21875 18.378906 33.179688 18.171875 33.097656 17.976562 C 33.019531 17.78125 32.902344 17.605469 32.753906 17.457031 C 32.605469 17.304688 32.433594 17.1875 32.238281 17.105469 C 32.042969 17.027344 31.839844 16.984375 31.628906 16.984375 L 28.445312 16.984375 C 28.234375 16.984375 28.03125 17.027344 27.839844 17.105469 C 27.644531 17.1875 27.472656 17.304688 27.324219 17.457031 C 27.171875 17.605469 27.058594 17.78125 26.976562 17.976562 C 26.898438 18.171875 26.855469 18.378906 26.855469 18.589844 Z M 26.855469 18.589844 " fill-opacity="1" fill-rule="nonzero"/><g clip-path="url(#76a9dd634b)"><path fill="#ffffff" d="M 34.8125 9.484375 L 25.265625 9.484375 C 24.914062 9.484375 24.574219 9.554688 24.25 9.6875 C 23.925781 9.824219 23.640625 10.019531 23.390625 10.269531 C 23.140625 10.519531 22.949219 10.808594 22.816406 11.136719 C 22.679688 11.464844 22.613281 11.808594 22.613281 12.164062 L 22.613281 18.953125 L 21.128906 20.953125 C 20.996094 21.128906 20.980469 21.316406 21.078125 21.511719 C 21.175781 21.710938 21.332031 21.808594 21.550781 21.808594 L 24.734375 21.808594 C 24.878906 21.804688 25 21.75 25.097656 21.644531 C 25.195312 21.542969 25.246094 21.417969 25.246094 21.273438 C 25.246094 21.128906 25.195312 21.003906 25.097656 20.902344 C 25 20.796875 24.878906 20.742188 24.734375 20.738281 L 22.613281 20.738281 L 23.566406 19.453125 C 23.636719 19.355469 23.671875 19.25 23.671875 19.128906 L 23.671875 12.164062 C 23.675781 11.949219 23.714844 11.746094 23.796875 11.546875 C 23.875 11.351562 23.992188 11.175781 24.140625 11.027344 C 24.289062 10.875 24.460938 10.761719 24.65625 10.679688 C 24.851562 10.597656 25.054688 10.554688 25.265625 10.554688 L 34.8125 10.554688 C 35.023438 10.554688 35.226562 10.597656 35.417969 10.679688 C 35.613281 10.761719 35.785156 10.875 35.9375 11.027344 C 36.085938 11.175781 36.199219 11.351562 36.28125 11.546875 C 36.363281 11.746094 36.402344 11.949219 36.402344 12.164062 L 36.402344 19.128906 C 36.402344 19.339844 36.363281 19.546875 36.28125 19.742188 C 36.199219 19.9375 36.085938 20.113281 35.9375 20.261719 C 35.785156 20.414062 35.613281 20.53125 35.417969 20.613281 C 35.226562 20.695312 35.023438 20.734375 34.8125 20.734375 L 28.976562 20.734375 C 28.828125 20.730469 28.699219 20.777344 28.589844 20.882812 C 28.480469 20.988281 28.429688 21.117188 28.429688 21.269531 C 28.429688 21.421875 28.480469 21.550781 28.589844 21.65625 C 28.699219 21.761719 28.828125 21.8125 28.976562 21.804688 L 34.8125 21.804688 C 35.164062 21.804688 35.5 21.738281 35.824219 21.601562 C 36.148438 21.464844 36.4375 21.273438 36.6875 21.019531 C 36.933594 20.769531 37.125 20.480469 37.261719 20.152344 C 37.394531 19.824219 37.464844 19.484375 37.464844 19.128906 L 37.464844 12.164062 C 37.464844 11.808594 37.394531 11.464844 37.261719 11.136719 C 37.125 10.808594 36.933594 10.519531 36.683594 10.269531 C 36.4375 10.019531 36.148438 9.824219 35.824219 9.6875 C 35.5 9.554688 35.164062 9.484375 34.8125 9.484375 Z M 34.8125 9.484375 " fill-opacity="1" fill-rule="nonzero"/></g><path fill="#ffffff" d="M 27.386719 21.269531 C 27.386719 21.417969 27.335938 21.542969 27.230469 21.648438 C 27.128906 21.753906 27.003906 21.804688 26.855469 21.804688 C 26.710938 21.804688 26.585938 21.753906 26.480469 21.648438 C 26.378906 21.542969 26.324219 21.417969 26.324219 21.269531 C 26.324219 21.121094 26.378906 20.996094 26.480469 20.890625 C 26.585938 20.785156 26.710938 20.734375 26.855469 20.734375 C 27.003906 20.734375 27.128906 20.785156 27.230469 20.890625 C 27.335938 20.996094 27.386719 21.121094 27.386719 21.269531 Z M 27.386719 21.269531 " fill-opacity="1" fill-rule="nonzero"/></svg>