<svg xmlns="http://www.w3.org/2000/svg" xmlns:xlink="http://www.w3.org/1999/xlink" width="60" zoomAndPan="magnify" viewBox="0 0 45 44.999999" height="60" preserveAspectRatio="xMidYMid meet" version="1.0"><defs><clipPath id="2d69bff845"><path d="M 0.636719 0.636719 L 44.136719 0.636719 L 44.136719 44.136719 L 0.636719 44.136719 Z M 0.636719 0.636719 " clip-rule="nonzero"/></clipPath><clipPath id="59d9f866ad"><path d="M 35 14 L 37.175781 14 L 37.175781 16 L 35 16 Z M 35 14 " clip-rule="nonzero"/></clipPath><clipPath id="d062d5ea7a"><path d="M 29 7.925781 L 31 7.925781 L 31 10 L 29 10 Z M 29 7.925781 " clip-rule="nonzero"/></clipPath><clipPath id="46834bf01c"><path d="M 7.925781 19 L 16 19 L 16 37.175781 L 7.925781 37.175781 Z M 7.925781 19 " clip-rule="nonzero"/></clipPath></defs><g clip-path="url(#2d69bff845)"><path fill="#000000" d="M 22.386719 0.636719 C 10.375 0.636719 0.636719 10.375 0.636719 22.386719 C 0.636719 34.398438 10.375 44.136719 22.386719 44.136719 C 34.398438 44.136719 44.136719 34.398438 44.136719 22.386719 C 44.136719 10.375 34.398438 0.636719 22.386719 0.636719 " fill-opacity="1" fill-rule="nonzero"/></g><path fill="#ffffff" d="M 32.457031 22.078125 L 32.457031 21.164062 C 32.457031 20.492188 32.707031 19.867188 33.148438 19.453125 C 34.207031 18.457031 34.816406 17.042969 34.816406 15.574219 C 34.816406 14.050781 34.171875 12.597656 33.046875 11.59375 C 31.9375 10.605469 30.515625 10.152344 29.035156 10.316406 C 26.621094 10.589844 24.699219 12.578125 24.464844 15.042969 C 24.304688 16.699219 24.894531 18.296875 26.078125 19.425781 C 26.535156 19.863281 26.796875 20.496094 26.796875 21.164062 L 26.796875 22.078125 C 26.796875 22.339844 27.007812 22.550781 27.269531 22.550781 L 31.984375 22.550781 C 32.246094 22.550781 32.457031 22.339844 32.457031 22.078125 Z M 31.515625 21.605469 L 27.738281 21.605469 L 27.738281 21.164062 C 27.738281 20.238281 27.371094 19.359375 26.730469 18.746094 C 25.753906 17.8125 25.269531 16.5 25.402344 15.132812 C 25.597656 13.109375 27.167969 11.476562 29.140625 11.253906 C 30.347656 11.121094 31.511719 11.488281 32.417969 12.296875 C 33.34375 13.125 33.871094 14.316406 33.871094 15.574219 C 33.871094 16.78125 33.371094 17.945312 32.5 18.769531 C 31.875 19.359375 31.515625 20.230469 31.515625 21.164062 Z M 31.515625 21.605469 " fill-opacity="1" fill-rule="nonzero"/><path fill="#ffffff" d="M 27.269531 23.023438 L 31.984375 23.023438 L 31.984375 23.964844 L 27.269531 23.964844 Z M 27.269531 23.023438 " fill-opacity="1" fill-rule="nonzero"/><path fill="#ffffff" d="M 31.917969 25.183594 L 31.960938 25.058594 C 32.007812 24.914062 31.984375 24.757812 31.894531 24.632812 C 31.808594 24.511719 31.664062 24.4375 31.515625 24.4375 L 27.738281 24.4375 C 27.589844 24.4375 27.445312 24.511719 27.355469 24.632812 C 27.269531 24.757812 27.246094 24.914062 27.292969 25.058594 L 27.332031 25.183594 C 27.65625 26.148438 28.554688 26.796875 29.570312 26.796875 L 29.683594 26.796875 C 30.699219 26.796875 31.597656 26.148438 31.917969 25.183594 Z M 29.683594 25.851562 L 29.570312 25.851562 C 29.160156 25.851562 28.777344 25.675781 28.515625 25.378906 L 30.738281 25.378906 C 30.472656 25.675781 30.09375 25.851562 29.683594 25.851562 Z M 29.683594 25.851562 " fill-opacity="1" fill-rule="nonzero"/><path fill="#ffffff" d="M 22.078125 14.53125 L 23.492188 14.53125 L 23.492188 15.472656 L 22.078125 15.472656 Z M 22.078125 14.53125 " fill-opacity="1" fill-rule="nonzero"/><g clip-path="url(#59d9f866ad)"><path fill="#ffffff" d="M 35.757812 14.53125 L 37.175781 14.53125 L 37.175781 15.472656 L 35.757812 15.472656 Z M 35.757812 14.53125 " fill-opacity="1" fill-rule="nonzero"/></g><path fill="#ffffff" d="M 23.957031 9.996094 L 24.621094 9.332031 L 25.625 10.332031 L 24.957031 11 Z M 23.957031 9.996094 " fill-opacity="1" fill-rule="nonzero"/><path fill="#ffffff" d="M 33.628906 10.332031 L 34.628906 9.332031 L 35.296875 9.996094 L 34.296875 11 Z M 33.628906 10.332031 " fill-opacity="1" fill-rule="nonzero"/><g clip-path="url(#d062d5ea7a)"><path fill="#ffffff" d="M 29.15625 7.925781 L 30.097656 7.925781 L 30.097656 9.339844 L 29.15625 9.339844 Z M 29.15625 7.925781 " fill-opacity="1" fill-rule="nonzero"/></g><g clip-path="url(#46834bf01c)"><path fill="#ffffff" d="M 9.121094 37.160156 C 9.160156 37.167969 9.203125 37.175781 9.242188 37.175781 C 9.375 37.175781 9.503906 37.117188 9.59375 37.015625 L 12.394531 33.859375 C 12.445312 33.804688 12.480469 33.738281 12.5 33.667969 L 15.429688 22.730469 C 15.765625 21.476562 15.015625 20.179688 13.761719 19.84375 C 12.503906 19.503906 11.207031 20.253906 10.871094 21.511719 L 7.941406 32.449219 C 7.921875 32.519531 7.917969 32.59375 7.933594 32.664062 L 8.78125 36.796875 C 8.816406 36.972656 8.949219 37.113281 9.121094 37.160156 Z M 11.183594 33.804688 L 10.832031 34.199219 L 9.117188 33.738281 L 9.011719 33.222656 Z M 9.515625 35.683594 L 9.328125 34.773438 L 10.132812 34.988281 Z M 11.707031 32.96875 L 10.796875 32.722656 L 13.238281 23.609375 L 14.152344 23.855469 Z M 13.515625 20.753906 C 14.269531 20.957031 14.71875 21.734375 14.515625 22.488281 L 14.394531 22.941406 L 11.660156 22.210938 L 11.78125 21.753906 C 11.984375 21 12.761719 20.550781 13.515625 20.753906 Z M 11.417969 23.121094 L 12.328125 23.367188 L 9.886719 32.480469 L 8.976562 32.234375 Z M 11.417969 23.121094 " fill-opacity="1" fill-rule="nonzero"/></g><path fill="#ffffff" d="M 30.097656 31.042969 L 30.097656 29.625 L 29.15625 29.625 L 29.15625 31.042969 C 29.15625 32.863281 27.671875 34.34375 25.851562 34.34375 L 24.910156 34.34375 C 23.085938 34.34375 21.605469 32.863281 21.605469 31.042969 L 21.605469 22.550781 C 21.605469 20.210938 19.703125 18.304688 17.359375 18.304688 L 16.890625 18.304688 L 16.890625 19.246094 L 17.359375 19.246094 C 19.179688 19.246094 20.664062 20.730469 20.664062 22.550781 L 20.664062 31.042969 C 20.664062 33.382812 22.566406 35.289062 24.910156 35.289062 L 25.851562 35.289062 C 28.195312 35.289062 30.097656 33.382812 30.097656 31.042969 Z M 30.097656 31.042969 " fill-opacity="1" fill-rule="nonzero"/><path fill="#ffffff" d="M 29.15625 27.738281 L 30.097656 27.738281 L 30.097656 28.683594 L 29.15625 28.683594 Z M 29.15625 27.738281 " fill-opacity="1" fill-rule="nonzero"/><path fill="#ffffff" d="M 32.058594 14.449219 L 30.675781 14.238281 L 30.054688 12.914062 C 29.976562 12.75 29.808594 12.644531 29.625 12.644531 C 29.445312 12.644531 29.277344 12.75 29.199219 12.914062 L 28.578125 14.238281 L 27.195312 14.449219 C 27.023438 14.476562 26.878906 14.597656 26.820312 14.765625 C 26.765625 14.933594 26.808594 15.121094 26.929688 15.246094 L 27.941406 16.285156 L 27.703125 17.757812 C 27.675781 17.933594 27.75 18.113281 27.898438 18.21875 C 28.042969 18.324219 28.238281 18.332031 28.398438 18.246094 L 29.625 17.566406 L 30.855469 18.246094 C 30.929688 18.285156 31.007812 18.304688 31.085938 18.304688 C 31.179688 18.304688 31.273438 18.273438 31.355469 18.21875 C 31.503906 18.113281 31.578125 17.933594 31.550781 17.753906 L 31.308594 16.285156 L 32.324219 15.246094 C 32.445312 15.117188 32.488281 14.933594 32.433594 14.765625 C 32.375 14.597656 32.230469 14.476562 32.058594 14.449219 Z M 30.46875 15.796875 C 30.363281 15.902344 30.316406 16.054688 30.339844 16.203125 L 30.460938 16.949219 L 29.855469 16.613281 C 29.785156 16.574219 29.707031 16.554688 29.625 16.554688 C 29.546875 16.554688 29.46875 16.574219 29.398438 16.613281 L 28.789062 16.949219 L 28.914062 16.203125 C 28.9375 16.054688 28.890625 15.902344 28.785156 15.796875 L 28.246094 15.246094 L 28.96875 15.132812 C 29.125 15.109375 29.257812 15.011719 29.324219 14.867188 L 29.625 14.226562 L 29.929688 14.867188 C 29.996094 15.011719 30.128906 15.109375 30.285156 15.132812 L 31.007812 15.246094 Z M 30.46875 15.796875 " fill-opacity="1" fill-rule="nonzero"/><path fill="#ffffff" d="M 15 18.304688 L 15.945312 18.304688 L 15.945312 19.246094 L 15 19.246094 Z M 15 18.304688 " fill-opacity="1" fill-rule="nonzero"/></svg>